<?xml version="1.0" standalone="no"?>
<!DOCTYPE svg PUBLIC "-//W3C//DTD SVG 20010904//EN"
 "http://www.w3.org/TR/2001/REC-SVG-20010904/DTD/svg10.dtd">
<svg version="1.0" xmlns="http://www.w3.org/2000/svg"
viewBox="90 130 300 200"
 preserveAspectRatio="xMidYMid meet">

<g transform="translate(0.000000,500.000000) scale(0.100000,-0.100000)"
fill="#000000" stroke="none">
<path d="M2070 2990 l0 -160 88 0 c114 0 166 24 200 90 12 24 22 56 22 70 0
14 -10 46 -22 70 -34 66 -86 90 -200 90 l-88 0 0 -160z m199 64 c14 -17 21
-41 21 -69 0 -55 -31 -85 -91 -88 l-44 -2 -3 93 -3 92 50 0 c42 0 53 -4 70
-26z"/>
<path d="M2622 3133 c-5 -10 -35 -79 -67 -153 -32 -74 -59 -138 -62 -142 -2
-5 15 -8 39 -8 39 0 45 3 55 30 11 29 13 30 81 30 69 0 70 -1 81 -30 9 -27 14
-30 50 -30 23 0 41 4 41 8 0 4 -28 75 -63 157 l-64 150 -41 3 c-31 2 -43 -1
-50 -15z m72 -132 c9 -24 15 -45 12 -48 -2 -2 -22 -3 -44 -1 l-39 3 20 53 c22
58 26 58 51 -7z"/>
<path d="M2980 2990 l0 -160 40 0 40 0 0 160 0 160 -40 0 -40 0 0 -160z"/>
<path d="M3230 2990 l0 -160 110 0 110 0 0 35 0 35 -70 0 -70 0 0 125 0 125
-40 0 -40 0 0 -160z"/>
<path d="M3619 3036 c49 -92 61 -122 61 -160 l0 -46 40 0 40 0 0 54 c0 47 8
70 56 160 l56 106 -41 0 c-38 0 -42 -3 -65 -47 -49 -95 -48 -95 -90 -20 -37
65 -39 67 -78 67 l-39 0 60 -114z"/>
<path d="M1180 3110 c0 -28 -3 -30 -34 -30 -33 0 -35 -2 -38 -37 -3 -35 -6
-38 -35 -41 l-33 -3 0 -360 0 -359 365 0 365 0 0 35 c0 33 2 35 35 35 33 0 35
2 35 35 0 33 2 35 35 35 l35 0 0 360 0 360 -365 0 -365 0 0 -30z m720 -330 l0
-350 -30 0 -30 0 0 325 0 325 -325 0 -325 0 0 25 0 25 355 0 355 0 0 -350z
m-722 258 c-2 -28 -8 -34 -30 -36 -26 -3 -28 -1 -28 32 0 33 2 36 31 36 28 0
30 -2 27 -32z m652 -288 l0 -320 -30 0 -30 0 0 285 0 285 -290 0 -290 0 0 35
0 35 320 0 320 0 0 -320z m-720 -80 l0 -320 325 0 325 0 0 -30 0 -30 -355 0
-355 0 0 350 0 350 30 0 30 0 0 -320z m70 35 l0 -285 290 0 290 0 0 -30 0 -30
-320 0 -320 0 0 315 0 315 30 0 30 0 0 -285z m580 5 l0 -280 -285 0 -285 0 0
280 0 280 285 0 285 0 0 -280z m70 -320 c0 -27 -3 -30 -30 -30 -27 0 -30 3
-30 30 0 27 3 30 30 30 27 0 30 -3 30 -30z"/>
<path d="M1280 2710 l0 -190 190 0 190 0 0 190 0 190 -190 0 -190 0 0 -190z"/>
<path d="M2070 2440 l0 -160 95 0 c104 0 156 15 174 48 18 34 13 71 -14 98
l-25 25 21 29 c28 37 19 74 -24 100 -26 16 -50 20 -129 20 l-98 0 0 -160z
m164 94 c9 -3 16 -16 16 -29 0 -26 -17 -35 -66 -35 -32 0 -34 2 -34 35 0 33 2
35 34 35 19 0 41 -3 50 -6z m24 -148 c6 -27 -24 -46 -70 -46 -37 0 -38 1 -38
36 l0 35 52 -3 c43 -2 54 -7 56 -22z"/>
<path d="M2500 2440 l0 -160 110 0 110 0 0 35 0 35 -70 0 -70 0 0 125 0 125
-40 0 -40 0 0 -160z"/>
<path d="M2935 2586 c-95 -42 -124 -169 -58 -247 71 -84 219 -78 280 10 49 72
32 172 -38 222 -40 29 -137 37 -184 15z m140 -81 c33 -32 34 -93 2 -130 -31
-37 -89 -37 -125 -2 -34 34 -34 97 -2 132 32 34 92 34 125 0z"/>
<path d="M3396 2577 c-101 -57 -108 -200 -13 -271 35 -26 155 -30 202 -6 28
14 30 20 33 78 l3 62 -35 0 c-34 0 -35 -1 -38 -42 -3 -36 -7 -43 -32 -49 -35
-10 -90 11 -105 39 -6 12 -11 37 -11 57 0 72 77 108 150 70 28 -14 29 -14 50
15 l22 30 -44 20 c-59 27 -132 26 -182 -3z"/>
<path d="M3800 2350 c0 -25 4 -30 25 -30 21 0 25 5 25 30 0 25 -4 30 -25 30
-21 0 -25 -5 -25 -30z"/>
</g>
</svg>
